<svg xmlns="http://www.w3.org/2000/svg" width="4096" height="1210" viewBox="0 0 4096 1210" class="svgtrace-topbar-logo-text"><path d="M 1420.492 467.027 C 1389.220 469.604, 1361.271 481.404, 1344.457 499.129 C 1337.047 506.941, 1335.118 509.662, 1330.577 518.710 C 1325.577 528.673, 1323.016 540.206, 1323.007 552.792 C 1322.994 571.915, 1327.401 585.465, 1337.507 597.378 C 1352.080 614.555, 1372.528 623.965, 1417 633.958 C 1451.084 641.617, 1464.384 646.256, 1469.737 652.353 C 1473.557 656.704, 1474.423 659.553, 1473.748 665.545 C 1472.789 674.050, 1467.351 678.701, 1454.477 682.026 C 1445.298 684.397, 1422.976 684.908, 1410 683.045 C 1391.957 680.455, 1370.817 673.336, 1353.111 663.888 C 1347.947 661.132, 1343.366 659.243, 1342.931 659.689 C 1342.496 660.135, 1336.716 672.606, 1330.087 687.403 C 1318.929 712.311, 1318.164 714.407, 1319.768 715.678 C 1324.103 719.113, 1346.677 729.355, 1357.948 733 C 1395.818 745.249, 1439.985 747.475, 1474.874 738.892 C 1496.917 733.470, 1512.829 725.117, 1526.101 712 C 1540.480 697.789, 1547.736 681.750, 1548.722 662 C 1549.999 636.408, 1542.522 618.627, 1524.331 603.993 C 1508.292 591.090, 1496.200 586.840, 1435 572.595 C 1409.907 566.755, 1399.868 560.968, 1398.452 551.530 C 1397.116 542.622, 1402.357 534.590, 1412.404 530.145 C 1424.787 524.668, 1451.926 524.610, 1473 530.016 C 1486.557 533.494, 1496.052 536.986, 1507.161 542.581 C 1512.750 545.396, 1514.456 545.880, 1515.101 544.837 C 1516.528 542.528, 1538.183 489.848, 1537.834 489.535 C 1537.650 489.371, 1533.450 487.211, 1528.500 484.735 C 1500.021 470.489, 1459.367 463.824, 1420.492 467.027 M 2054.004 467.572 C 2019.316 472.023, 1989.952 485.894, 1967.479 508.444 C 1943.063 532.944, 1929.843 563.992, 1928.278 600.504 C 1926.027 653.047, 1946.358 696.723, 1984.702 721.717 C 2005.868 735.514, 2029.276 742.475, 2058.607 743.696 C 2086.907 744.874, 2111.030 738.916, 2130 726.062 L 2134.500 723.013 2134.791 731.023 L 2135.081 739.033 2161.291 738.767 L 2187.500 738.500 2187.500 669 L 2187.500 599.500 2153.750 599.237 L 2120 598.973 2120 633.382 L 2120 667.792 2114.950 671.032 C 2094.402 684.218, 2062.705 685.805, 2040.158 674.779 C 2029.902 669.763, 2018.391 657.889, 2013.228 647 C 2011.011 642.325, 2008.457 635.575, 2007.552 632 C 2005.338 623.253, 2004.438 601.495, 2005.898 592 C 2012.366 549.931, 2044.561 526.030, 2089.250 530.120 C 2108.071 531.843, 2122.109 538.249, 2138.639 552.657 L 2145.777 558.879 2169.389 537.423 C 2182.375 525.622, 2193 515.680, 2193 515.328 C 2193 512.296, 2176.300 497.343, 2164.207 489.548 C 2156.655 484.680, 2142.025 477.836, 2131.373 474.187 C 2110.611 467.074, 2078.965 464.369, 2054.004 467.572 M 2354 466.590 C 2319.359 469.581, 2289.338 477.006, 2262.939 489.111 C 2253.505 493.438, 2242.677 499.114, 2241.161 500.528 C 2240.975 500.702, 2246.531 513.237, 2253.509 528.383 L 2266.196 555.922 2275.307 551.346 C 2288.509 544.715, 2305.831 538.162, 2318.857 534.870 C 2325.103 533.292, 2331.065 532, 2332.107 532 C 2333.952 532, 2334 534.611, 2334 635.500 L 2334 739 2372 739 L 2410 739 2410 635.500 C 2410 537.595, 2410.095 532, 2411.750 532.001 C 2415.217 532.004, 2433.703 536.925, 2443.292 540.398 C 2448.678 542.348, 2458.691 546.626, 2465.543 549.904 C 2476.851 555.313, 2478.090 555.701, 2478.945 554.103 C 2483.259 546.043, 2502.999 501.440, 2502.652 500.536 C 2501.890 498.550, 2474.083 485.348, 2461.500 480.998 C 2434.904 471.803, 2407.874 467.133, 2378 466.569 C 2367.275 466.367, 2356.475 466.377, 2354 466.590 M 2987.708 467.108 C 2967.723 469.306, 2944.876 477.349, 2929.303 487.668 C 2909.620 500.711, 2892.626 524.755, 2885.601 549.500 C 2880.109 568.846, 2880.008 570.804, 2880.004 658.262 L 2880 739.024 2917.250 738.762 L 2954.500 738.500 2954.765 709.250 L 2955.030 680 3006.515 680 L 3058 680 3058 709.500 L 3058 739 3096 739 L 3134 739 3133.997 663.750 C 3133.993 582.300, 3133.536 572.294, 3128.997 554.325 C 3117.079 507.134, 3084.430 477.589, 3034.013 468.371 C 3023.559 466.460, 2999.556 465.805, 2987.708 467.108 M 3336.500 467.101 C 3286.237 472.344, 3243.998 500.230, 3223.049 542 C 3214.683 558.682, 3210.435 574.411, 3209.048 593.846 C 3206.093 635.261, 3218.777 672.182, 3245.464 699.846 C 3266.587 721.742, 3292.171 735.220, 3324 741.217 C 3341.072 744.434, 3372.857 744.432, 3388.763 741.214 C 3417.592 735.380, 3441.961 722.804, 3460.910 703.982 C 3465.909 699.016, 3470 694.537, 3470 694.031 C 3470 693.318, 3445.178 670.329, 3424.246 651.655 L 3421.992 649.644 3414.608 656.959 C 3398.876 672.545, 3383.891 679.282, 3362.061 680.586 C 3340.783 681.856, 3321.157 674.730, 3306.743 660.500 C 3292.287 646.228, 3285.745 628.767, 3285.761 604.500 C 3285.772 589.037, 3287.787 580.014, 3294.134 567 C 3297.491 560.119, 3299.921 556.878, 3306.890 549.987 C 3321.428 535.612, 3336.066 529.944, 3359 529.809 C 3369.793 529.746, 3372.729 530.102, 3380.500 532.419 C 3392.890 536.113, 3402.740 541.961, 3413.062 551.750 C 3417.847 556.288, 3422.021 560, 3422.338 560 C 3423.169 560, 3469.427 517.907, 3469.870 516.748 C 3470.503 515.090, 3450.907 496.619, 3442.593 491.036 C 3433.890 485.193, 3418.099 477.426, 3408 474.021 C 3388.154 467.330, 3360.219 464.626, 3336.500 467.101 M 3640 466.962 C 3602.950 470.129, 3574.337 481.341, 3555.973 499.888 C 3540.171 515.849, 3533.736 533.714, 3536.118 555.012 C 3537.204 564.717, 3540.586 574.029, 3545.818 581.725 C 3550.261 588.260, 3558.142 595.988, 3562.843 598.419 C 3564.579 599.317, 3566 600.406, 3566 600.840 C 3566 601.274, 3564.313 602.432, 3562.250 603.412 C 3545.753 611.254, 3531.113 628.650, 3526.408 646 C 3524.141 654.358, 3524.120 670.133, 3526.363 679 C 3531.421 698.992, 3547.342 716.889, 3569.500 727.488 C 3594.788 739.584, 3625.235 744.817, 3663.751 743.688 C 3700.756 742.603, 3731.514 736.026, 3758.868 723.348 C 3766.292 719.907, 3768.137 718.643, 3767.762 717.253 C 3767.402 715.920, 3746.126 663.308, 3745.534 662.289 C 3745.467 662.174, 3741.076 664.253, 3735.777 666.911 C 3715.490 677.085, 3691.561 682.798, 3665.479 683.692 C 3646.355 684.348, 3632.222 683.097, 3622.659 679.902 C 3605.964 674.324, 3598.599 663.771, 3602.364 650.820 C 3605.015 641.699, 3612.750 636.219, 3626.006 634.069 C 3629.849 633.445, 3650.565 633.012, 3676.750 633.008 L 3721 633 3721 604 L 3721 575 3681.750 574.969 C 3637.815 574.935, 3630.236 574.331, 3622.685 570.266 C 3611.143 564.053, 3608.778 548.802, 3617.804 538.784 C 3624.763 531.060, 3637.159 527.271, 3658.500 526.345 C 3681.247 525.358, 3703.908 528.744, 3724.500 536.205 C 3730.550 538.397, 3736.351 540.260, 3737.391 540.345 C 3738.986 540.476, 3740.826 536.292, 3749.141 513.619 C 3754.564 498.835, 3759 486.175, 3759 485.486 C 3759 481.789, 3720.760 471.331, 3695 467.984 C 3683.809 466.529, 3651.982 465.938, 3640 466.962 M 1589.730 471.739 C 1589.509 472.157, 1614.975 532.462, 1646.321 605.750 L 1703.314 739 1740.572 739 L 1777.830 739 1834.915 605.602 C 1866.312 532.234, 1892 471.928, 1892 471.590 C 1892 471.252, 1875.103 471.094, 1854.452 471.238 L 1816.903 471.500 1780.254 557.719 C 1760.097 605.140, 1743.382 643.715, 1743.109 643.443 C 1742.837 643.170, 1726.570 604.371, 1706.961 557.223 L 1671.308 471.500 1630.720 471.239 C 1608.396 471.095, 1589.951 471.320, 1589.730 471.739 M 2562 604.918 L 2562 739 2600 739 L 2638 739 2638 703.500 L 2638 668 2658.432 668 L 2678.864 668 2703.098 703.500 L 2727.332 739 2767.773 739 C 2799.715 739, 2808.113 738.737, 2807.733 737.750 C 2807.469 737.063, 2794.609 718.072, 2779.157 695.548 L 2751.060 654.597 2756.912 651.470 C 2775.472 641.554, 2790.241 624.432, 2797.202 604.763 C 2806.002 579.895, 2804.625 549.320, 2793.724 527.500 C 2779.121 498.271, 2751.539 479.976, 2712 473.291 C 2704.094 471.955, 2690.713 471.614, 2632.250 471.261 L 2562 470.837 2562 604.918 M 2997.138 530.104 C 2982.022 531.878, 2967.616 541.851, 2961.172 555 C 2956.051 565.450, 2955.037 572.578, 2955.017 598.250 L 2955 621 3006.633 621 L 3058.266 621 3057.733 597.250 C 3057.303 578.082, 3056.828 572.141, 3055.269 566.456 C 3047.936 539.719, 3026.962 526.603, 2997.138 530.104 M 2638 570.500 L 2638 609 2662.250 608.992 C 2675.588 608.988, 2689.329 608.526, 2692.787 607.965 C 2707.740 605.538, 2716.620 599.579, 2722.213 588.218 C 2725.326 581.895, 2725.500 580.959, 2725.500 570.521 C 2725.500 560.542, 2725.235 558.933, 2722.698 553.500 C 2719.288 546.200, 2714.121 540.657, 2707.631 537.336 C 2698.990 532.916, 2691.731 532.036, 2663.750 532.017 L 2638 532 2638 570.500" stroke="none" fill="#fff" fill-rule="evenodd"></path><path d="M 677 329.466 C 659.866 333.393, 643.896 343.490, 633.549 356.937 C 627.514 364.780, 621.473 377.485, 619.445 386.604 L 617.799 394 527.400 394 L 437 394 437 377.401 C 437 359.019, 436.214 355.739, 431.080 352.706 C 428.468 351.164, 423.714 351, 381.496 351 L 334.800 351 331.400 354.400 L 328 357.800 328 405.384 L 328 452.968 330.917 456.234 L 333.835 459.500 380.667 459.751 C 431.894 460.025, 430.629 460.158, 434.720 454.088 C 436.869 450.898, 437 449.738, 437 433.852 L 437 417 497.227 417 L 557.454 417 545.977 422.823 C 520.604 435.698, 500.377 449.848, 482.119 467.498 C 462.995 485.985, 448.982 505.032, 438.079 527.355 C 432.305 539.176, 424.557 560.146, 422.044 570.750 C 421.012 575.107, 420.428 576, 418.610 576 C 414.879 576, 404.916 578.937, 399.585 581.609 C 374.556 594.152, 362.114 622.139, 369.644 648.957 C 376.546 673.539, 399.396 691, 424.661 691 C 434.684 691, 441.108 689.485, 450.896 684.811 C 470.343 675.525, 483 655.142, 483 633.111 C 483 623.746, 479.758 611.892, 475.010 603.900 C 469.764 595.069, 459.036 585.194, 450.588 581.420 C 446.994 579.814, 444.042 577.940, 444.027 577.256 C 444.012 576.571, 446.011 569.901, 448.469 562.432 C 470.535 495.374, 521.601 450.075, 605 423.576 C 611.325 421.567, 617.003 419.752, 617.618 419.543 C 618.257 419.326, 619.868 422.596, 621.373 427.166 C 629.685 452.392, 649.359 470.382, 676.005 477.121 C 687.616 480.057, 704.780 479.432, 716.500 475.646 C 739.081 468.353, 758.157 448.947, 765.495 425.806 L 767.618 419.112 777.559 422.451 C 812.915 434.325, 844.965 454.161, 872.845 481.427 C 905.886 513.739, 928.095 550.948, 940.382 594.577 L 942.788 603.119 937.644 605.421 C 913.620 616.173, 899.114 643.906, 904.406 668.965 C 909.498 693.079, 928.605 711.478, 952.398 715.177 C 979.446 719.382, 1006.582 702.962, 1015.686 676.881 C 1026.249 646.620, 1009.428 613.236, 978.698 603.478 C 974.407 602.115, 969.652 601, 968.131 601 C 965.505 601, 965.274 600.609, 963.544 593.250 C 953.235 549.404, 926.006 501.854, 891.534 467.500 C 873.898 449.924, 846.840 429.505, 829.750 420.875 C 826.587 419.278, 824 417.753, 824 417.486 C 824 417.219, 852.350 417, 887 417 L 950 417 950 434.984 L 950 452.968 952.918 456.234 L 955.836 459.500 1003.899 459.500 L 1051.962 459.500 1055.231 456.232 L 1058.500 452.963 1058.779 406.944 C 1059.086 356.360, 1059.074 356.247, 1053.080 352.706 C 1050.468 351.164, 1045.714 351, 1003.496 351 L 956.800 351 953.400 354.400 L 950 357.800 950 375.900 L 950 394 859.114 394 L 768.227 394 767.547 389.462 C 765.674 376.976, 758.283 362.593, 748.270 351.949 C 737.505 340.505, 724.656 333.018, 709.756 329.505 C 702.198 327.722, 684.695 327.702, 677 329.466 M 675.866 607.511 C 674.182 608.426, 671.607 612.107, 668.724 617.721 C 616.254 719.903, 541.799 866.755, 541.367 868.917 C 540.039 875.555, 546.861 882.771, 553.453 881.701 C 555.181 881.421, 583.574 868.938, 616.548 853.962 C 649.522 838.986, 677.625 826.292, 679 825.754 C 681.172 824.904, 689.381 828.422, 741.500 852.535 C 774.500 867.802, 803.243 880.919, 805.372 881.684 C 810.072 883.371, 814.500 882.226, 818.103 878.390 C 823.616 872.522, 826.184 878.298, 756.152 739 C 710.561 648.317, 691.173 610.706, 689.010 608.750 C 685.549 605.621, 680.263 605.122, 675.866 607.511" stroke="none" fill="#f453c4" fill-rule="evenodd"></path></svg>